<mxfile host="app.diagrams.net" agent="Mozilla/5.0 (Macintosh; Intel Mac OS X 10_15_7) AppleWebKit/537.36 (KHTML, like Gecko) Chrome/137.0.0.0 Safari/537.36" version="27.1.6">
  <diagram name="第 1 页" id="j1TzuLuGr58YibAGpSaS">
    <mxGraphModel dx="2104" dy="924" grid="0" gridSize="1" guides="1" tooltips="1" connect="1" arrows="1" fold="1" page="0" pageScale="1" pageWidth="827" pageHeight="1169" math="0" shadow="0">
      <root>
        <mxCell id="0" />
        <mxCell id="1" parent="0" />
        <mxCell id="IqrCXrtKxaEDs8SVGuVz-1" value="&lt;font style=&quot;color: rgb(0, 102, 0);&quot;&gt;Pay User&lt;/font&gt;" style="shape=umlLifeline;perimeter=lifelinePerimeter;whiteSpace=wrap;html=1;container=1;dropTarget=0;collapsible=0;recursiveResize=0;outlineConnect=0;portConstraint=eastwest;newEdgeStyle={&quot;curved&quot;:0,&quot;rounded&quot;:0};fontFamily=Comic Sans MS;sketch=1;curveFitting=1;jiggle=2;rounded=1;fillColor=#3399FF;strokeColor=#6c8ebf;fontSize=21;fontStyle=1" parent="1" vertex="1">
          <mxGeometry x="-10" width="180" height="540" as="geometry" />
        </mxCell>
        <mxCell id="IqrCXrtKxaEDs8SVGuVz-6" value="&lt;font style=&quot;color: rgb(0, 102, 51);&quot;&gt;Yield&lt;/font&gt;" style="shape=umlLifeline;perimeter=lifelinePerimeter;whiteSpace=wrap;html=1;container=1;dropTarget=0;collapsible=0;recursiveResize=0;outlineConnect=0;portConstraint=eastwest;newEdgeStyle={&quot;curved&quot;:0,&quot;rounded&quot;:0};fontFamily=Comic Sans MS;sketch=1;curveFitting=1;jiggle=2;rounded=1;fillColor=#009900;strokeColor=#009900;fontSize=21;fontStyle=1" parent="1" vertex="1">
          <mxGeometry x="210" width="210" height="540" as="geometry" />
        </mxCell>
        <mxCell id="IqrCXrtKxaEDs8SVGuVz-7" value="" style="html=1;points=[[0,0,0,0,5],[0,1,0,0,-5],[1,0,0,0,5],[1,1,0,0,-5]];perimeter=orthogonalPerimeter;outlineConnect=0;targetShapes=umlLifeline;portConstraint=eastwest;newEdgeStyle={&quot;curved&quot;:0,&quot;rounded&quot;:0};fontFamily=Architects Daughter;fontSource=https%3A%2F%2Ffonts.googleapis.com%2Fcss%3Ffamily%3DArchitects%2BDaughter;fillColor=#0050ef;strokeColor=#001DBC;fontColor=#ffffff;sketch=1;curveFitting=1;jiggle=2;rounded=1;shadow=1;" parent="IqrCXrtKxaEDs8SVGuVz-6" vertex="1">
          <mxGeometry x="90" y="90" width="31.25" height="90" as="geometry" />
        </mxCell>
        <mxCell id="s2lKYzKS0piqkQgpG3lQ-5" value="" style="html=1;points=[[0,0,0,0,5],[0,1,0,0,-5],[1,0,0,0,5],[1,1,0,0,-5]];perimeter=orthogonalPerimeter;outlineConnect=0;targetShapes=umlLifeline;portConstraint=eastwest;newEdgeStyle={&quot;curved&quot;:0,&quot;rounded&quot;:0};fontFamily=Architects Daughter;fontSource=https%3A%2F%2Ffonts.googleapis.com%2Fcss%3Ffamily%3DArchitects%2BDaughter;fillColor=#0050ef;strokeColor=#001DBC;fontColor=#ffffff;sketch=1;curveFitting=1;jiggle=2;rounded=1;shadow=1;arcSize=50;" parent="IqrCXrtKxaEDs8SVGuVz-6" vertex="1">
          <mxGeometry x="89.38" y="227" width="31.25" height="90" as="geometry" />
        </mxCell>
        <mxCell id="IqrCXrtKxaEDs8SVGuVz-8" value="&lt;font style=&quot;font-size: 19px; color: rgb(0, 51, 0);&quot;&gt;1. 快速赎回&lt;/font&gt;" style="html=1;verticalAlign=bottom;startArrow=oval;endArrow=block;startSize=8;curved=0;rounded=0;entryX=0;entryY=0;entryDx=0;entryDy=5;fontFamily=Architects Daughter;fontSource=https%3A%2F%2Ffonts.googleapis.com%2Fcss%3Ffamily%3DArchitects%2BDaughter;fontSize=16;sourcePerimeterSpacing=8;targetPerimeterSpacing=8;strokeColor=#0000CC;strokeWidth=2;sketch=1;curveFitting=1;jiggle=2;" parent="1" source="IqrCXrtKxaEDs8SVGuVz-1" target="IqrCXrtKxaEDs8SVGuVz-7" edge="1">
          <mxGeometry x="0.0025" relative="1" as="geometry">
            <mxPoint x="150" y="215" as="sourcePoint" />
            <mxPoint as="offset" />
          </mxGeometry>
        </mxCell>
        <mxCell id="IqrCXrtKxaEDs8SVGuVz-9" value="&lt;font style=&quot;color: rgb(153, 0, 0);&quot;&gt;X Layer&lt;/font&gt;" style="shape=umlLifeline;perimeter=lifelinePerimeter;whiteSpace=wrap;html=1;container=1;dropTarget=0;collapsible=0;recursiveResize=0;outlineConnect=0;portConstraint=eastwest;newEdgeStyle={&quot;curved&quot;:0,&quot;rounded&quot;:0};fontFamily=Comic Sans MS;sketch=1;curveFitting=1;jiggle=2;rounded=1;fillColor=#fa6800;strokeColor=#C73500;fontSize=21;fontStyle=1;fontColor=#000000;" parent="1" vertex="1">
          <mxGeometry x="460" width="180" height="540" as="geometry" />
        </mxCell>
        <mxCell id="IqrCXrtKxaEDs8SVGuVz-11" value="" style="html=1;points=[[0,0,0,0,5],[0,1,0,0,-5],[1,0,0,0,5],[1,1,0,0,-5]];perimeter=orthogonalPerimeter;outlineConnect=0;targetShapes=umlLifeline;portConstraint=eastwest;newEdgeStyle={&quot;curved&quot;:0,&quot;rounded&quot;:0};fontFamily=Architects Daughter;fontSource=https%3A%2F%2Ffonts.googleapis.com%2Fcss%3Ffamily%3DArchitects%2BDaughter;fillColor=#008a00;fontColor=#ffffff;strokeColor=#005700;sketch=1;curveFitting=1;jiggle=2;shadow=1;rounded=1;arcSize=50;labelBackgroundColor=none;textShadow=1;glass=0;" parent="IqrCXrtKxaEDs8SVGuVz-9" vertex="1">
          <mxGeometry x="72.5" y="150" width="35" height="100" as="geometry" />
        </mxCell>
        <mxCell id="IqrCXrtKxaEDs8SVGuVz-12" value="&lt;font color=&quot;#00331a&quot;&gt;&lt;span style=&quot;font-size: 18px;&quot;&gt;1.1: 储备金&lt;/span&gt;&lt;/font&gt;" style="html=1;verticalAlign=bottom;endArrow=block;curved=0;rounded=0;entryX=0;entryY=0;entryDx=0;entryDy=5;fontFamily=Architects Daughter;fontSource=https%3A%2F%2Ffonts.googleapis.com%2Fcss%3Ffamily%3DArchitects%2BDaughter;fontSize=16;startSize=14;endSize=14;sourcePerimeterSpacing=8;targetPerimeterSpacing=8;strokeColor=#006633;strokeWidth=2;sketch=1;curveFitting=1;jiggle=2;shadow=0;" parent="1" edge="1">
          <mxGeometry x="0.0049" relative="1" as="geometry">
            <mxPoint x="330" y="160" as="sourcePoint" />
            <mxPoint x="535" y="160" as="targetPoint" />
            <mxPoint as="offset" />
          </mxGeometry>
        </mxCell>
        <mxCell id="IqrCXrtKxaEDs8SVGuVz-13" value="1.2.快速赎回" style="html=1;verticalAlign=bottom;endArrow=block;endSize=8;curved=0;rounded=1;exitX=0;exitY=1;exitDx=0;exitDy=-5;fontFamily=Architects Daughter;fontSource=https%3A%2F%2Ffonts.googleapis.com%2Fcss%3Ffamily%3DArchitects%2BDaughter;fontSize=16;sourcePerimeterSpacing=8;targetPerimeterSpacing=8;strokeColor=#006633;strokeWidth=2;sketch=1;curveFitting=1;jiggle=2;endFill=1;" parent="1" source="IqrCXrtKxaEDs8SVGuVz-11" target="s2lKYzKS0piqkQgpG3lQ-5" edge="1">
          <mxGeometry x="0.0036" relative="1" as="geometry">
            <mxPoint x="366" y="245" as="targetPoint" />
            <mxPoint as="offset" />
          </mxGeometry>
        </mxCell>
        <mxCell id="s2lKYzKS0piqkQgpG3lQ-6" value="1.3.response" style="html=1;verticalAlign=bottom;endArrow=block;endSize=8;curved=0;rounded=1;exitX=0;exitY=1;exitDx=0;exitDy=-5;fontFamily=Architects Daughter;fontSource=https%3A%2F%2Ffonts.googleapis.com%2Fcss%3Ffamily%3DArchitects%2BDaughter;fontSize=16;sourcePerimeterSpacing=8;targetPerimeterSpacing=8;strokeColor=#006633;strokeWidth=2;sketch=1;curveFitting=1;jiggle=2;endFill=1;" parent="1" target="IqrCXrtKxaEDs8SVGuVz-1" edge="1">
          <mxGeometry x="0.0036" relative="1" as="geometry">
            <mxPoint x="104" y="301" as="targetPoint" />
            <mxPoint as="offset" />
            <mxPoint x="298" y="301" as="sourcePoint" />
          </mxGeometry>
        </mxCell>
        <mxCell id="s2lKYzKS0piqkQgpG3lQ-7" value="" style="edgeStyle=orthogonalEdgeStyle;orthogonalLoop=1;jettySize=auto;html=1;rounded=0;fontFamily=Architects Daughter;fontSource=https%3A%2F%2Ffonts.googleapis.com%2Fcss%3Ffamily%3DArchitects%2BDaughter;fontSize=16;startSize=14;endArrow=open;endSize=14;sourcePerimeterSpacing=8;targetPerimeterSpacing=8;curved=1;entryX=1;entryY=1;entryDx=0;entryDy=-5;entryPerimeter=0;" parent="1" target="IqrCXrtKxaEDs8SVGuVz-11" edge="1">
          <mxGeometry width="140" relative="1" as="geometry">
            <mxPoint x="567" y="159" as="sourcePoint" />
            <mxPoint x="707" y="159" as="targetPoint" />
            <Array as="points">
              <mxPoint x="567" y="154" />
              <mxPoint x="605" y="154" />
              <mxPoint x="605" y="245" />
            </Array>
          </mxGeometry>
        </mxCell>
        <mxCell id="s2lKYzKS0piqkQgpG3lQ-8" value="广播交易" style="edgeLabel;html=1;align=center;verticalAlign=middle;resizable=0;points=[];fontSize=16;fontFamily=Architects Daughter;fontSource=https%3A%2F%2Ffonts.googleapis.com%2Fcss%3Ffamily%3DArchitects%2BDaughter;" parent="s2lKYzKS0piqkQgpG3lQ-7" vertex="1" connectable="0">
          <mxGeometry x="-0.6698" y="-1" relative="1" as="geometry">
            <mxPoint x="21" y="39" as="offset" />
          </mxGeometry>
        </mxCell>
      </root>
    </mxGraphModel>
  </diagram>
</mxfile>
